<?xml version="1.0" encoding="UTF-8"?><svg id="Layer_1" xmlns="http://www.w3.org/2000/svg" viewBox="0 0 360.3 103.03"><polygon points="31.18 103.03 28.09 103.03 0 51.63 11.72 51.63 29.67 84.46 47.55 51.63 59.27 51.63 31.18 103.03" fill="#fff"/><rect x="78.46" y="51.63" width="10.28" height="51.39" fill="#fff"/><path d="m137.73,92.75c8.5,0,15.42-6.92,15.42-15.42s-6.92-15.42-15.42-15.42h-8.56v30.83h8.56Zm-18.84,10.28v-51.39h18.84c14.18,0,25.69,11.51,25.69,25.7s-11.51,25.69-25.69,25.69h-18.84Z" fill="#fff"/><polygon points="177.13 51.63 189.26 51.63 202.9 73.42 216.6 51.63 228.73 51.63 208.04 84.59 208.04 103.03 197.76 103.03 197.76 84.59 177.13 51.63" fill="#fff"/><path d="m291.77,80.76c0,12.33-10,22.27-22.27,22.27s-22.27-9.94-22.27-22.27v-29.12h10.28v29.12c0,6.65,5.34,11.99,11.99,11.99s11.99-5.34,11.99-11.99v-29.12h10.28v29.12Z" fill="#fff"/><polygon points="315.76 51.63 360.3 51.63 360.3 61.91 343.17 61.91 343.17 103.03 332.89 103.03 332.89 61.91 315.76 61.91 315.76 51.63" fill="#fff"/><path d="m124.6,18.09l-6.98,8.26h9.53v6.59h-23.67l16.07-19.11c.66-.75,1.01-1.76,1.01-2.85,0-2.42-1.93-4.39-4.39-4.39s-4.39,1.98-4.39,4.39c0,.7.17,1.41.48,1.98l.48,1.01-5.89,2.94-.48-1.01c-.75-1.45-1.19-3.16-1.19-4.92,0-6.06,4.92-10.98,10.98-10.98s10.98,4.92,10.98,10.98c.01,2.68-.96,5.18-2.54,7.11" fill="#fff"/><path d="m150.99,16.46c0,5.45,4.44,9.88,9.88,9.88s9.88-4.44,9.88-9.88-4.44-9.88-9.88-9.88-9.88,4.44-9.88,9.88m9.88,16.48c-9.09,0-16.47-7.38-16.47-16.47S151.78,0,160.87,0s16.47,7.38,16.47,16.47-7.38,16.47-16.47,16.47" fill="#fff"/><path d="m214.92,18.09l-6.98,8.26h9.53v6.59h-23.67l16.07-19.11c.66-.75,1.01-1.76,1.01-2.85,0-2.42-1.93-4.39-4.39-4.39s-4.39,1.98-4.39,4.39c0,.7.18,1.41.48,1.98l.48,1.01-5.89,2.94-.48-1.01c-.75-1.45-1.19-3.16-1.19-4.92,0-6.06,4.92-10.98,10.98-10.98s10.98,4.92,10.98,10.98c0,2.68-.96,5.18-2.54,7.11" fill="#fff"/><path d="m234.66,25.5l6.19-.75c.2,1.58.73,2.79,1.59,3.62s1.91,1.25,3.14,1.25c1.32,0,2.43-.5,3.34-1.5.9-1,1.35-2.35,1.35-4.05,0-1.61-.43-2.88-1.3-3.82s-1.92-1.41-3.17-1.41c-.82,0-1.8.16-2.94.48l.71-5.21c1.73.05,3.05-.33,3.96-1.13s1.37-1.86,1.37-3.18c0-1.12-.33-2.02-1-2.69s-1.56-1-2.66-1-2.03.38-2.8,1.14-1.24,1.87-1.41,3.32l-5.9-1c.41-2.02,1.03-3.63,1.86-4.84.83-1.21,1.98-2.16,3.46-2.85,1.48-.69,3.14-1.04,4.97-1.04,3.14,0,5.66,1,7.56,3.01,1.56,1.64,2.34,3.49,2.34,5.56,0,2.93-1.6,5.27-4.8,7.01,1.91.41,3.44,1.33,4.59,2.76s1.72,3.15,1.72,5.17c0,2.93-1.07,5.43-3.21,7.49-2.14,2.06-4.8,3.1-7.99,3.1-3.02,0-5.53-.87-7.51-2.61-1.99-1.75-3.14-4.02-3.46-6.83Z" fill="#fff"/></svg>